<?xml version="1.0" encoding="iso-8859-1"?>
<!-- Generator: Adobe Illustrator 19.0.0, SVG Export Plug-In . SVG Version: 6.00 Build 0)  -->
<svg version="1.1" id="Capa_1" xmlns="http://www.w3.org/2000/svg" xmlns:xlink="http://www.w3.org/1999/xlink" x="0px" y="0px"
	 viewBox="0 0 512 512" style="enable-background:new 0 0 512 512;" xml:space="preserve">
<path style="fill:#3199FF;" d="M300.542,511.999c-0.912,0-1.835-0.075-2.765-0.23c-9.096-1.516-15.24-10.117-13.724-19.213
	l12.797-76.777c0.998-5.991,5.172-10.968,10.899-12.995c18.243-6.454,34.883-16.066,49.46-28.565
	c4.618-3.961,11.026-5.097,16.724-2.961l59.662,22.351l30.378-52.617l-49.108-40.428c-4.694-3.864-6.916-9.975-5.801-15.952
	c1.858-9.957,2.761-19.317,2.761-28.615c0-9.298-0.904-18.658-2.761-28.616c-1.115-5.977,1.107-12.088,5.801-15.952l49.108-40.427
	l-30.378-52.617l-59.662,22.351c-5.699,2.136-12.107,1.001-16.724-2.961c-14.576-12.499-31.216-22.11-49.46-28.565
	c-5.727-2.027-9.9-7.003-10.899-12.995l-10.473-62.825h-60.756L215.15,96.218c-0.998,5.991-5.172,10.968-10.899,12.995
	c-18.243,6.454-34.883,16.066-49.46,28.565c-4.619,3.96-11.028,5.095-16.724,2.961l-59.662-22.351l-30.378,52.617l49.108,40.427
	c4.694,3.864,6.916,9.974,5.801,15.951c-1.858,9.962-2.761,19.321-2.761,28.617c0,9.295,0.904,18.656,2.761,28.615
	c1.115,5.977-1.107,12.088-5.801,15.952l-49.108,40.428l30.378,52.617l59.662-22.351c5.699-2.137,12.106-1.001,16.724,2.961
	c14.576,12.499,31.216,22.11,49.46,28.565c5.727,2.027,9.9,7.003,10.899,12.995l12.797,76.777
	c1.516,9.095-4.628,17.697-13.724,19.213c-9.097,1.519-17.697-4.628-19.213-13.724l-11.226-67.358
	c-15.414-6.372-29.802-14.679-42.958-24.805l-63.952,23.958c-7.644,2.863-16.236-0.219-20.315-7.286l-44.521-77.113
	c-4.082-7.068-2.454-16.05,3.848-21.238l52.633-43.329c-1.153-8.457-1.735-16.789-1.735-24.875c0-8.087,0.582-16.418,1.735-24.876
	l-52.633-43.329c-6.301-5.187-7.928-14.169-3.848-21.238l44.521-77.113c4.082-7.068,12.674-10.151,20.315-7.286l63.952,23.958
	c13.156-10.126,27.543-18.434,42.958-24.805l11.226-67.358C196.352,5.9,203.317,0,211.479,0h89.043
	c8.162,0,15.126,5.9,16.468,13.951l11.226,67.358c15.414,6.372,29.802,14.679,42.958,24.805l63.952-23.958
	c7.643-2.865,16.235,0.218,20.315,7.286l44.521,77.113c4.081,7.068,2.454,16.05-3.848,21.238l-52.633,43.328
	c1.152,8.456,1.734,16.788,1.734,24.876s-0.582,16.419-1.734,24.875l52.633,43.329c6.301,5.188,7.928,14.169,3.848,21.238
	l-44.521,77.113c-4.08,7.068-12.672,10.152-20.315,7.286l-63.952-23.958c-13.156,10.126-27.543,18.434-42.958,24.805l-11.226,67.358
	C315.629,506.212,308.555,511.999,300.542,511.999z"/>
<path style="fill:#FFD500;" d="M378.435,255.998c0-24.963-7.51-48.991-21.718-69.487c-13.845-19.972-33.066-35.268-55.585-44.233
	c-5.142-2.047-10.965-1.414-15.547,1.694c-4.581,3.106-7.325,8.282-7.325,13.817v82.955L256,253.464l-22.261-12.72V157.79
	c0-5.535-2.744-10.711-7.325-13.817c-4.581-3.108-10.406-3.742-15.547-1.694c-22.519,8.965-41.74,24.261-55.585,44.233
	c-14.208,20.495-21.718,44.523-21.718,69.487c0,47.483,27.171,88.74,66.782,109.039v130.264c0,9.22,7.475,16.696,16.696,16.696
	h77.913c9.22,0,16.696-7.475,16.696-16.696V365.037C351.263,344.738,378.435,303.482,378.435,255.998z M278.261,478.606H233.74
	V376.398c7.221,1.332,14.66,2.035,22.261,2.035s15.039-0.702,22.261-2.035V478.606z M289.778,338.367
	c-0.333,0.109-0.67,0.197-0.998,0.327c-7.897,3.144-16.048,5.129-24.324,5.934c-0.386,0.037-0.777,0.058-1.164,0.089
	c-0.991,0.082-1.98,0.165-2.974,0.214c-1.431,0.069-2.869,0.109-4.317,0.109c-1.448,0-2.886-0.041-4.317-0.109
	c-0.994-0.049-1.983-0.131-2.974-0.214c-0.387-0.031-0.778-0.052-1.164-0.089c-8.277-0.805-16.426-2.789-24.324-5.934
	c-0.327-0.13-0.664-0.219-0.997-0.327c-32.394-13.333-55.266-45.224-55.266-82.37c0-27.621,12.558-52.873,33.391-69.457v63.893
	c0,5.991,3.21,11.523,8.412,14.495l38.956,22.261c5.132,2.934,11.433,2.934,16.566,0l38.956-22.261
	c5.202-2.972,8.412-8.505,8.412-14.495v-63.892c20.833,16.584,33.391,41.836,33.391,69.457
	C345.044,293.145,322.172,325.034,289.778,338.367z"/>
<g>
</g>
<g>
</g>
<g>
</g>
<g>
</g>
<g>
</g>
<g>
</g>
<g>
</g>
<g>
</g>
<g>
</g>
<g>
</g>
<g>
</g>
<g>
</g>
<g>
</g>
<g>
</g>
<g>
</g>
</svg>
