<?xml version="1.0" encoding="iso-8859-1"?>
<!-- Generator: Adobe Illustrator 19.0.0, SVG Export Plug-In . SVG Version: 6.00 Build 0)  -->
<svg version="1.1" id="Capa_1" xmlns="http://www.w3.org/2000/svg" xmlns:xlink="http://www.w3.org/1999/xlink" x="0px" y="0px"
	 viewBox="0 0 480 480" style="enable-background:new 0 0 480 480;" xml:space="preserve">
<path style="fill:#BCBEC0;" d="M8,440c0,17.673,14.327,32,32,32h224c17.673,0,32-14.327,32-32v-16H8V440z"/>
<path style="fill:#FFC67B;" d="M231.36,347.44c-68.172-48.987-83.724-143.963-34.737-212.135
	C220.251,102.424,256.021,80.329,296,73.92V56H8v368h288v-48H160L231.36,347.44z"/>
<path style="fill:#BCBEC0;" d="M296,40c0-17.673-14.327-32-32-32H40C22.327,8,8,22.327,8,40v16h288V40z"/>
<path style="fill:#FFD839;" d="M320,72c-8.039-0.01-16.065,0.632-24,1.92c-82.889,13.287-139.312,91.254-126.025,174.143
	c6.409,39.979,28.504,75.749,61.385,99.377L160,376h160c83.947,0,152-68.053,152-152S403.947,72,320,72z M408,184h-16v128H248V184
	h-16v-48h88l-24-24l24,24l24-24l-24,24h88V184z"/>
<g>
	<path style="fill:#FF7754;" d="M320,184h72v128h-72V184z"/>
	<path style="fill:#FF7754;" d="M248,184h72v128h-72V184z"/>
	<path style="fill:#FF7754;" d="M320,136h-88v48h16h72V136z"/>
	<path style="fill:#FF7754;" d="M320,184h72h16v-48h-88V184z"/>
</g>
<g>
	<path style="fill:#231F20;" d="M152,40h48c4.418,0,8-3.582,8-8s-3.582-8-8-8h-48c-4.418,0-8,3.582-8,8S147.582,40,152,40z"/>
	<path style="fill:#231F20;" d="M104,40h16c4.418,0,8-3.582,8-8s-3.582-8-8-8h-16c-4.418,0-8,3.582-8,8S99.582,40,104,40z"/>
	<path style="fill:#231F20;" d="M176,440h-48c-4.418,0-8,3.582-8,8s3.582,8,8,8h48c4.418,0,8-3.582,8-8S180.418,440,176,440z"/>
	<path style="fill:#231F20;" d="M320,64c-5.345,0.031-10.685,0.333-16,0.904V40c-0.026-22.08-17.92-39.974-40-40H40
		C17.92,0.026,0.026,17.92,0,40v400c0.026,22.08,17.92,39.974,40,40h224c22.08-0.026,39.974-17.92,40-40v-56h16
		c88.366,0,160-71.634,160-160S408.366,64,320,64z M40,16h224c13.255,0,24,10.745,24,24v8H16v-8C16,26.745,26.745,16,40,16z
		 M264,464H40c-13.255,0-24-10.745-24-24v-8h272v8C288,453.255,277.255,464,264,464z M288,416H16V64h272v3.4
		c-86.512,17.588-142.386,101.978-124.798,188.489c7.062,34.735,25.469,66.138,52.326,89.271l-58.504,23.416
		c-4.1,1.646-6.09,6.304-4.443,10.405c1.217,3.031,4.154,5.017,7.419,5.019h128V416z M320,368H201.52l32.8-13.136
		c0.868-0.369,1.665-0.889,2.352-1.536c0.184-0.168,0.352-0.336,0.52-0.52c0.566-0.608,1.035-1.298,1.392-2.048
		c0-0.08,0.088-0.136,0.12-0.216c0.292-0.684,0.489-1.406,0.584-2.144c0-0.168,0-0.328,0-0.504s0-0.472,0-0.72
		c-0.019-0.818-0.167-1.628-0.44-2.4c0-0.096,0-0.192-0.056-0.288l-0.056-0.088c-0.365-0.855-0.877-1.64-1.512-2.32
		c-0.168-0.184-0.352-0.336-0.528-0.496c-0.212-0.223-0.437-0.434-0.672-0.632c-64.58-46.415-79.305-136.394-32.89-200.973
		c22.389-31.151,56.282-52.081,94.162-58.147C304.803,80.614,312.395,80.001,320,80c79.529,0,144,64.471,144,144
		S399.529,368,320,368z"/>
	<path style="fill:#231F20;" d="M408,128h-68.688l10.344-10.344c3.069-3.178,2.982-8.243-0.196-11.312
		c-3.1-2.994-8.015-2.994-11.116,0L320,124.688l-18.344-18.344c-3.178-3.07-8.242-2.982-11.312,0.196
		c-2.995,3.1-2.995,8.016,0,11.116L300.688,128H232c-4.418,0-8,3.582-8,8v48c0,4.418,3.582,8,8,8h8v120c0,4.418,3.582,8,8,8l0,0h144
		c4.418,0,8-3.582,8-8V192h8c4.418,0,8-3.582,8-8v-48C416,131.582,412.418,128,408,128z M240,144h72v32h-72V144z M256,192h56v112
		h-56V192z M384,304h-56V192h56V304z M400,176h-72v-32h72V176z"/>
	<path style="fill:#231F20;" d="M88,80H40c-4.418,0-8,3.582-8,8v48c0,4.418,3.582,8,8,8s8-3.582,8-8V96h40c4.418,0,8-3.582,8-8
		S92.418,80,88,80z"/>
	<path style="fill:#231F20;" d="M88,384H48v-40c0-4.418-3.582-8-8-8s-8,3.582-8,8v48c0,4.418,3.582,8,8,8h48c4.418,0,8-3.582,8-8
		S92.418,384,88,384z"/>
</g>
<g>
</g>
<g>
</g>
<g>
</g>
<g>
</g>
<g>
</g>
<g>
</g>
<g>
</g>
<g>
</g>
<g>
</g>
<g>
</g>
<g>
</g>
<g>
</g>
<g>
</g>
<g>
</g>
<g>
</g>
</svg>
